# Blender v3.2.0 OBJ File: ''
# www.blender.org
mtllib washing_tool1.mtl
o Tool1-3.0
v 7.999979 8.500001 -3.000001
v 7.999979 3.750001 -3.000001
v 9.000001 8.500001 -3.000001
v 9.000001 3.000001 -3.000001
v 6.000023 3.750001 -3.000001
v 5.000001 3.000001 -3.000001
v 5.000001 8.500001 -3.000001
v 6.000023 8.500001 -3.000001
v 1.000001 3.000001 -10.000001
v 9.000001 3.000001 -7.000001
v 13.000001 3.000001 -10.000001
v 14.000001 3.000001 -9.000001
v 13.965927 3.000001 -9.258820
v 0.741182 3.000001 -9.965927
v 0.500001 3.000001 -9.866027
v 0.292894 3.000001 -9.707108
v 0.133976 3.000001 -9.500001
v 0.034075 3.000001 -9.258820
v 0.000001 3.000001 -9.000001
v 5.000001 3.000001 -7.000001
v 0.000001 3.000001 -1.000001
v 1.000001 3.000001 -0.000001
v 13.000001 3.000001 -0.000001
v 0.034075 3.000001 -0.741182
v 0.133976 3.000001 -0.500001
v 0.292894 3.000001 -0.292894
v 0.500001 3.000001 -0.133976
v 0.741182 3.000001 -0.034075
v 13.258820 3.000001 -0.034075
v 13.500001 3.000001 -0.133976
v 13.707108 3.000001 -0.292894
v 13.866027 3.000001 -0.500001
v 13.965927 3.000001 -0.741182
v 14.000001 3.000001 -1.000001
v 13.866027 3.000001 -9.500001
v 13.707108 3.000001 -9.707108
v 13.500001 3.000001 -9.866027
v 13.258820 3.000001 -9.965927
v 14.000001 0.000001 -9.000001
v 13.965927 0.000001 -9.258820
v 13.866027 0.000001 -9.500001
v 13.707108 0.000001 -9.707108
v 13.500001 0.000001 -9.866027
v 13.258820 0.000001 -9.965927
v 13.000001 0.000001 -10.000001
v 14.000001 0.000001 -1.000001
v 13.000001 0.000001 -0.000001
v 13.258820 0.000001 -0.034075
v 13.500001 0.000001 -0.133976
v 13.707108 0.000001 -0.292894
v 13.866027 0.000001 -0.500001
v 13.965927 0.000001 -0.741182
v 1.000001 0.000001 -0.000001
v 0.000001 0.000001 -1.000001
v 0.034075 0.000001 -0.741182
v 0.133976 0.000001 -0.500001
v 0.292894 0.000001 -0.292894
v 0.500001 0.000001 -0.133976
v 0.741182 0.000001 -0.034075
v 0.000001 0.000001 -9.000001
v 1.000001 0.000001 -10.000001
v 0.741182 0.000001 -9.965927
v 0.500001 0.000001 -9.866027
v 0.292894 0.000001 -9.707108
v 0.133976 0.000001 -9.500001
v 0.034075 0.000001 -9.258820
v 5.842001 5.750001 -3.230001
v 5.000001 5.750001 -3.230001
v 5.842001 6.208111 -3.290312
v 5.000001 6.208111 -3.290312
v 5.842001 6.635001 -3.467136
v 5.000001 6.635001 -3.467136
v 5.842001 7.001580 -3.748422
v 5.000001 7.001580 -3.748422
v 5.842001 7.282866 -4.115001
v 5.000001 7.282866 -4.115001
v 5.842001 7.459690 -4.541891
v 5.000001 7.459690 -4.541891
v 5.842001 7.520001 -5.000001
v 5.000001 7.520001 -5.000001
v 5.842001 7.459690 -5.458111
v 5.000001 7.459690 -5.458111
v 5.842001 7.282866 -5.885001
v 5.000001 7.282866 -5.885001
v 5.842001 7.001580 -6.251580
v 5.000001 7.001580 -6.251580
v 5.842001 6.635001 -6.532866
v 5.000001 6.635001 -6.532866
v 5.842001 6.208111 -6.709690
v 5.000001 6.208111 -6.709690
v 5.842001 5.750001 -6.770001
v 5.000001 5.750001 -6.770001
v 5.842001 5.291891 -6.709690
v 5.000001 5.291891 -6.709690
v 5.842001 4.865001 -6.532866
v 5.000001 4.865001 -6.532866
v 5.842001 4.498422 -6.251580
v 5.000001 4.498422 -6.251580
v 5.842001 4.217136 -5.885001
v 5.000001 4.217136 -5.885001
v 5.842001 4.040312 -5.458111
v 5.000001 4.040312 -5.458111
v 5.842001 3.980001 -5.000001
v 5.000001 3.980001 -5.000001
v 5.842001 4.040312 -4.541891
v 5.000001 4.040312 -4.541891
v 5.842001 4.217136 -4.115001
v 5.000001 4.217136 -4.115001
v 5.842001 4.498422 -3.748422
v 5.000001 4.498422 -3.748422
v 5.842001 4.865001 -3.467136
v 5.000001 4.865001 -3.467136
v 5.842001 5.291891 -3.290312
v 5.000001 5.291891 -3.290312
v 8.158001 5.750001 -3.230001
v 9.000001 5.750001 -3.230001
v 8.158001 5.291891 -3.290312
v 9.000001 5.291891 -3.290312
v 8.158001 4.865001 -3.467136
v 9.000001 4.865001 -3.467136
v 8.158001 4.498422 -3.748422
v 9.000001 4.498422 -3.748422
v 8.158001 4.217136 -4.115001
v 9.000001 4.217136 -4.115001
v 8.158001 4.040312 -4.541891
v 9.000001 4.040312 -4.541891
v 8.158001 3.980001 -5.000001
v 9.000001 3.980001 -5.000001
v 8.158001 4.040312 -5.458111
v 9.000001 4.040312 -5.458111
v 8.158001 4.217136 -5.885001
v 9.000001 4.217136 -5.885001
v 8.158001 4.498422 -6.251580
v 9.000001 4.498422 -6.251580
v 8.158001 4.865001 -6.532866
v 9.000001 4.865001 -6.532866
v 8.158001 5.291891 -6.709690
v 9.000001 5.291891 -6.709690
v 8.158001 5.750001 -6.770001
v 9.000001 5.750001 -6.770001
v 8.158001 6.208111 -6.709690
v 9.000001 6.208111 -6.709690
v 8.158001 6.635001 -6.532866
v 9.000001 6.635001 -6.532866
v 8.158001 7.001580 -6.251580
v 9.000001 7.001580 -6.251580
v 8.158001 7.282866 -5.885001
v 9.000001 7.282866 -5.885001
v 8.158001 7.459690 -5.458111
v 9.000001 7.459690 -5.458111
v 8.158001 7.520001 -5.000001
v 9.000001 7.520001 -5.000001
v 8.158001 7.459690 -4.541891
v 9.000001 7.459690 -4.541891
v 8.158001 7.282866 -4.115001
v 9.000001 7.282866 -4.115001
v 8.158001 7.001580 -3.748422
v 9.000001 7.001580 -3.748422
v 8.158001 6.635001 -3.467136
v 9.000001 6.635001 -3.467136
v 8.158001 6.208111 -3.290312
v 9.000001 6.208111 -3.290312
v 6.000023 8.500001 -3.750001
v 6.000023 3.750001 -3.750001
v 7.999979 3.750001 -3.750001
v 7.999979 8.500001 -3.750001
v 5.000001 8.500001 -7.000001
v 9.000001 8.500001 -7.000001
vn 0.0000 0.0000 1.0000
vn 0.0000 1.0000 0.0000
vn 0.9914 0.0000 -0.1305
vn 0.9239 0.0000 -0.3827
vn 0.7933 0.0000 -0.6088
vn 0.7934 0.0000 -0.6088
vn 0.6088 0.0000 -0.7933
vn 0.6088 0.0000 -0.7934
vn 0.3827 0.0000 -0.9239
vn 0.1305 0.0000 -0.9914
vn 1.0000 0.0000 0.0000
vn 0.1305 0.0000 0.9914
vn 0.3827 0.0000 0.9239
vn 0.6088 0.0000 0.7934
vn 0.7934 0.0000 0.6088
vn 0.9239 0.0000 0.3827
vn 0.9914 0.0000 0.1305
vn -0.9914 0.0000 0.1305
vn -0.9239 0.0000 0.3827
vn -0.7934 0.0000 0.6088
vn -0.6088 0.0000 0.7934
vn -0.3827 0.0000 0.9239
vn -0.1305 0.0000 0.9914
vn -1.0000 0.0000 0.0000
vn -0.1305 0.0000 -0.9914
vn -0.3827 0.0000 -0.9239
vn -0.6088 0.0000 -0.7934
vn -0.7934 0.0000 -0.6088
vn -0.9239 0.0000 -0.3827
vn -0.9914 0.0000 -0.1305
vn 0.0000 0.0000 -1.0000
vn 0.0000 -1.0000 -0.0000
vn 0.0000 -0.1305 -0.9914
vn 0.0000 -0.3827 -0.9239
vn 0.0000 -0.6088 -0.7934
vn 0.0000 -0.7934 -0.6088
vn 0.0000 -0.9239 -0.3827
vn 0.0000 -0.9914 -0.1305
vn 0.0000 -0.9914 0.1305
vn 0.0000 -0.9239 0.3827
vn 0.0000 -0.7934 0.6088
vn 0.0000 -0.6088 0.7934
vn 0.0000 -0.3827 0.9239
vn 0.0000 -0.1305 0.9914
vn 0.0000 0.1305 0.9914
vn 0.0000 0.3827 0.9239
vn 0.0000 0.6088 0.7934
vn 0.0000 0.7934 0.6088
vn 0.0000 0.9239 0.3827
vn 0.0000 0.9914 0.1305
vn 0.0000 0.9914 -0.1305
vn 0.0000 0.9239 -0.3827
vn 0.0000 0.7934 -0.6088
vn 0.0000 0.6088 -0.7934
vn 0.0000 0.3827 -0.9239
vn 0.0000 0.1305 -0.9914
usemtl None
s off
f 1//1 2//1 3//1
f 3//1 2//1 4//1
f 4//1 2//1 5//1
f 4//1 5//1 6//1
f 6//1 5//1 7//1
f 7//1 5//1 8//1
f 9//2 10//2 11//2
f 11//2 10//2 12//2
f 11//2 12//2 13//2
f 14//2 15//2 9//2
f 9//2 15//2 16//2
f 9//2 16//2 17//2
f 17//2 18//2 9//2
f 9//2 18//2 19//2
f 9//2 19//2 20//2
f 20//2 19//2 21//2
f 20//2 21//2 6//2
f 6//2 21//2 22//2
f 6//2 22//2 23//2
f 21//2 24//2 22//2
f 22//2 24//2 25//2
f 22//2 25//2 26//2
f 26//2 27//2 22//2
f 22//2 27//2 28//2
f 29//2 30//2 23//2
f 23//2 30//2 31//2
f 23//2 31//2 32//2
f 32//2 33//2 23//2
f 23//2 33//2 34//2
f 23//2 34//2 4//2
f 4//2 34//2 10//2
f 10//2 34//2 12//2
f 13//2 35//2 11//2
f 11//2 35//2 36//2
f 11//2 36//2 37//2
f 37//2 38//2 11//2
f 20//2 10//2 9//2
f 4//2 6//2 23//2
f 12//3 39//3 13//3
f 13//3 39//3 40//3
f 13//4 40//4 35//4
f 35//4 40//4 41//4
f 35//5 41//5 36//5
f 36//6 41//6 42//6
f 36//7 42//7 37//7
f 37//8 42//8 43//8
f 37//9 43//9 38//9
f 38//9 43//9 44//9
f 38//10 44//10 11//10
f 11//10 44//10 45//10
f 46//11 39//11 34//11
f 34//11 39//11 12//11
f 23//12 47//12 29//12
f 29//12 47//12 48//12
f 29//13 48//13 30//13
f 30//13 48//13 49//13
f 30//14 49//14 31//14
f 31//14 49//14 50//14
f 31//15 50//15 32//15
f 32//15 50//15 51//15
f 32//16 51//16 33//16
f 33//16 51//16 52//16
f 33//17 52//17 34//17
f 34//17 52//17 46//17
f 53//1 47//1 22//1
f 22//1 47//1 23//1
f 21//18 54//18 24//18
f 24//18 54//18 55//18
f 24//19 55//19 25//19
f 25//19 55//19 56//19
f 25//20 56//20 26//20
f 26//20 56//20 57//20
f 26//21 57//21 27//21
f 27//21 57//21 58//21
f 27//22 58//22 28//22
f 28//22 58//22 59//22
f 28//23 59//23 22//23
f 22//23 59//23 53//23
f 60//24 54//24 19//24
f 19//24 54//24 21//24
f 9//25 61//25 14//25
f 14//25 61//25 62//25
f 14//26 62//26 15//26
f 15//26 62//26 63//26
f 15//27 63//27 16//27
f 16//27 63//27 64//27
f 16//28 64//28 17//28
f 17//28 64//28 65//28
f 17//29 65//29 18//29
f 18//29 65//29 66//29
f 18//30 66//30 19//30
f 19//30 66//30 60//30
f 45//31 61//31 11//31
f 11//31 61//31 9//31
f 45//32 60//32 61//32
f 61//32 60//32 66//32
f 61//32 66//32 65//32
f 44//32 43//32 45//32
f 45//32 43//32 42//32
f 45//32 42//32 41//32
f 41//32 40//32 45//32
f 45//32 40//32 39//32
f 45//32 39//32 60//32
f 60//32 39//32 54//32
f 54//32 39//32 46//32
f 54//32 46//32 53//32
f 53//32 46//32 47//32
f 47//32 46//32 52//32
f 47//32 52//32 51//32
f 51//32 50//32 47//32
f 47//32 50//32 49//32
f 47//32 49//32 48//32
f 59//32 58//32 53//32
f 53//32 58//32 57//32
f 53//32 57//32 56//32
f 56//32 55//32 53//32
f 53//32 55//32 54//32
f 65//32 64//32 61//32
f 61//32 64//32 63//32
f 61//32 63//32 62//32
f 67//33 68//33 69//33
f 69//33 68//33 70//33
f 69//34 70//34 71//34
f 71//34 70//34 72//34
f 71//35 72//35 73//35
f 73//35 72//35 74//35
f 73//36 74//36 75//36
f 75//36 74//36 76//36
f 75//37 76//37 77//37
f 77//37 76//37 78//37
f 77//38 78//38 79//38
f 79//38 78//38 80//38
f 79//39 80//39 81//39
f 81//39 80//39 82//39
f 81//40 82//40 83//40
f 83//40 82//40 84//40
f 83//41 84//41 85//41
f 85//41 84//41 86//41
f 85//42 86//42 87//42
f 87//42 86//42 88//42
f 87//43 88//43 89//43
f 89//43 88//43 90//43
f 89//44 90//44 91//44
f 91//44 90//44 92//44
f 91//45 92//45 93//45
f 93//45 92//45 94//45
f 93//46 94//46 95//46
f 95//46 94//46 96//46
f 95//47 96//47 97//47
f 97//47 96//47 98//47
f 97//48 98//48 99//48
f 99//48 98//48 100//48
f 99//49 100//49 101//49
f 101//49 100//49 102//49
f 101//50 102//50 103//50
f 103//50 102//50 104//50
f 103//51 104//51 105//51
f 105//51 104//51 106//51
f 105//52 106//52 107//52
f 107//52 106//52 108//52
f 107//53 108//53 109//53
f 109//53 108//53 110//53
f 109//54 110//54 111//54
f 111//54 110//54 112//54
f 111//55 112//55 113//55
f 113//55 112//55 114//55
f 113//56 114//56 67//56
f 67//56 114//56 68//56
f 67//24 69//24 113//24
f 113//24 69//24 111//24
f 111//24 69//24 71//24
f 111//24 71//24 109//24
f 109//24 71//24 73//24
f 109//24 73//24 107//24
f 107//24 73//24 75//24
f 107//24 75//24 105//24
f 105//24 75//24 77//24
f 105//24 77//24 103//24
f 103//24 77//24 79//24
f 103//24 79//24 101//24
f 101//24 79//24 81//24
f 101//24 81//24 99//24
f 99//24 81//24 83//24
f 99//24 83//24 97//24
f 97//24 83//24 85//24
f 97//24 85//24 95//24
f 95//24 85//24 87//24
f 95//24 87//24 93//24
f 93//24 87//24 89//24
f 93//24 89//24 91//24
f 115//56 116//56 117//56
f 117//56 116//56 118//56
f 117//55 118//55 119//55
f 119//55 118//55 120//55
f 119//54 120//54 121//54
f 121//54 120//54 122//54
f 121//53 122//53 123//53
f 123//53 122//53 124//53
f 123//52 124//52 125//52
f 125//52 124//52 126//52
f 125//51 126//51 127//51
f 127//51 126//51 128//51
f 127//50 128//50 129//50
f 129//50 128//50 130//50
f 129//49 130//49 131//49
f 131//49 130//49 132//49
f 131//48 132//48 133//48
f 133//48 132//48 134//48
f 133//47 134//47 135//47
f 135//47 134//47 136//47
f 135//46 136//46 137//46
f 137//46 136//46 138//46
f 137//45 138//45 139//45
f 139//45 138//45 140//45
f 139//44 140//44 141//44
f 141//44 140//44 142//44
f 141//43 142//43 143//43
f 143//43 142//43 144//43
f 143//42 144//42 145//42
f 145//42 144//42 146//42
f 145//41 146//41 147//41
f 147//41 146//41 148//41
f 147//40 148//40 149//40
f 149//40 148//40 150//40
f 149//39 150//39 151//39
f 151//39 150//39 152//39
f 151//38 152//38 153//38
f 153//38 152//38 154//38
f 153//37 154//37 155//37
f 155//37 154//37 156//37
f 155//36 156//36 157//36
f 157//36 156//36 158//36
f 157//35 158//35 159//35
f 159//35 158//35 160//35
f 159//34 160//34 161//34
f 161//34 160//34 162//34
f 161//33 162//33 115//33
f 115//33 162//33 116//33
f 115//11 117//11 161//11
f 161//11 117//11 159//11
f 159//11 117//11 119//11
f 159//11 119//11 157//11
f 157//11 119//11 121//11
f 157//11 121//11 155//11
f 155//11 121//11 123//11
f 155//11 123//11 153//11
f 153//11 123//11 125//11
f 153//11 125//11 151//11
f 151//11 125//11 127//11
f 151//11 127//11 149//11
f 149//11 127//11 129//11
f 149//11 129//11 147//11
f 147//11 129//11 131//11
f 147//11 131//11 145//11
f 145//11 131//11 133//11
f 145//11 133//11 143//11
f 143//11 133//11 135//11
f 143//11 135//11 141//11
f 141//11 135//11 137//11
f 141//11 137//11 139//11
f 8//11 5//11 163//11
f 163//11 5//11 164//11
f 5//2 2//2 164//2
f 164//2 2//2 165//2
f 2//24 1//24 165//24
f 165//24 1//24 166//24
f 163//1 164//1 166//1
f 166//1 164//1 165//1
f 114//24 6//24 68//24
f 68//24 6//24 7//24
f 68//24 7//24 70//24
f 70//24 7//24 72//24
f 72//24 7//24 74//24
f 74//24 7//24 76//24
f 76//24 7//24 78//24
f 78//24 7//24 80//24
f 80//24 7//24 167//24
f 80//24 167//24 82//24
f 82//24 167//24 84//24
f 84//24 167//24 86//24
f 86//24 167//24 88//24
f 88//24 167//24 90//24
f 90//24 167//24 92//24
f 92//24 167//24 20//24
f 92//24 20//24 94//24
f 94//24 20//24 96//24
f 96//24 20//24 98//24
f 98//24 20//24 100//24
f 100//24 20//24 102//24
f 102//24 20//24 104//24
f 104//24 20//24 6//24
f 104//24 6//24 106//24
f 106//24 6//24 108//24
f 108//24 6//24 110//24
f 110//24 6//24 112//24
f 112//24 6//24 114//24
f 10//31 20//31 168//31
f 168//31 20//31 167//31
f 162//11 3//11 116//11
f 116//11 3//11 4//11
f 116//11 4//11 118//11
f 118//11 4//11 120//11
f 120//11 4//11 122//11
f 122//11 4//11 124//11
f 124//11 4//11 126//11
f 126//11 4//11 128//11
f 128//11 4//11 10//11
f 128//11 10//11 130//11
f 130//11 10//11 132//11
f 132//11 10//11 134//11
f 134//11 10//11 136//11
f 136//11 10//11 138//11
f 138//11 10//11 140//11
f 140//11 10//11 168//11
f 140//11 168//11 142//11
f 142//11 168//11 144//11
f 144//11 168//11 146//11
f 146//11 168//11 148//11
f 148//11 168//11 150//11
f 150//11 168//11 152//11
f 152//11 168//11 3//11
f 152//11 3//11 154//11
f 154//11 3//11 156//11
f 156//11 3//11 158//11
f 158//11 3//11 160//11
f 160//11 3//11 162//11
f 1//2 3//2 166//2
f 166//2 3//2 168//2
f 166//2 168//2 167//2
f 166//2 167//2 163//2
f 163//2 167//2 7//2
f 163//2 7//2 8//2
